<?xml version="1.0" encoding="UTF-8"?>
<svg width="250px" height="250px" viewBox="0 0 250 250" version="1.1" xmlns="http://www.w3.org/2000/svg" xmlns:xlink="http://www.w3.org/1999/xlink">
    <!-- Generator: Sketch 48.2 (47327) - http://www.bohemiancoding.com/sketch -->
    <title>Group 8</title>
    <desc>Created with Sketch.</desc>
    <defs>
        <rect id="path-1" x="27" y="29" width="22" height="22" rx="11"></rect>
        <rect id="path-2" x="14" y="65" width="48" height="20" rx="7"></rect>
    </defs>
    <g id="help.mitel.io-copy-5" stroke="none" stroke-width="1" fill="none" fill-rule="evenodd" transform="translate(-598.000000, -292.000000)">
        <g id="Group-8" transform="translate(598.000000, 292.000000)">
            <rect id="Rectangle-14-Copy" stroke="#E7EAEF" x="0.5" y="0.5" width="249" height="249"></rect>
            <g id="iconOfficeLink-Copy-2" transform="translate(0.000000, 1.000000)">
                <g id="bkgrnd">
                    <g id="Group-12" transform="translate(83.000000, 72.000000)">
                        <g id="Group-3-Copy" fill-rule="nonzero" stroke="#11284C" stroke-width="3">
                            <path d="M63.300885,39.980592 C69.8483917,39.6188518 75,34.2404935 75,27.7135326 L75,27.3316754 C75,20.6371205 69.5785888,15.1710397 62.8309424,15.0473578 L60.0172121,14.9957831 L59.9997557,12.2084268 C59.957495,5.4604417 54.4144646,0 47.5961538,0 C43.0110687,0 38.8710092,2.4820775 36.7079295,6.39451789 L35.6683776,8.27479307 L33.5550669,7.81197785 C32.6797759,7.62028906 31.7799377,7.52260398 30.8653846,7.52260398 C26.1437001,7.52260398 21.8998031,10.1560105 19.798772,14.2519629 L18.6737684,16.4451532 L16.3169434,15.6690096 C15.0673951,15.2575116 13.7519358,15.045208 12.4038462,15.045208 C5.55226205,15.045208 0,20.5453262 0,27.3316754 L0,27.7135326 C0,34.4945579 5.55622448,40 12.4038462,40 C12.4823225,40 12.5606953,39.9992821 12.6389592,39.9978482 L15.5769231,39.9440213 L62.9496001,40 L63.300885,39.980592 Z" id="Combined-Shape-Copy-2"></path>
                        </g>
                        <g id="Rectangle-7-Copy-2">
                            <use fill="#FFFFFF" fill-rule="evenodd" xlink:href="#path-1"></use>
                            <rect stroke="#00A1E0" stroke-width="3" x="28.5" y="30.5" width="19" height="19" rx="9.5"></rect>
                        </g>
                        <path d="M38,50 C38,50.5079365 38,55.8412698 38,66" id="Path-4" stroke="#00A1E0" stroke-width="3"></path>
                        <g id="Rectangle-7-Copy-3">
                            <use fill-opacity="0.0974581069" fill="#11284C" fill-rule="evenodd" xlink:href="#path-2"></use>
                            <rect stroke="#11284C" stroke-width="3" x="15.5" y="66.5" width="45" height="17" rx="7"></rect>
                        </g>
                    </g>
                </g>
                <path d="M76,210.22 C76,206.12 79.08,203 83.18,203 C86.58,203 88.32,204.86 88.32,204.86 L87.34,206.34 C87.34,206.34 85.7,204.8 83.26,204.8 C80.1,204.8 78.04,207.2 78.04,210.2 C78.04,213.22 80.14,215.78 83.28,215.78 C85.94,215.78 87.64,213.94 87.64,213.94 L88.7,215.36 C88.7,215.36 86.76,217.6 83.22,217.6 C78.98,217.6 76,214.36 76,210.22 Z M90.8966667,214.6 L90.8966667,203.24 L92.8366667,203.24 L92.8366667,214.26 C92.8366667,215.48 93.3166667,215.7 93.9166667,215.7 C94.0966667,215.7 94.2566667,215.68 94.2566667,215.68 L94.2566667,217.4 C94.2566667,217.4 93.9566667,217.44 93.6166667,217.44 C92.5166667,217.44 90.8966667,217.14 90.8966667,214.6 Z M95.5933333,212.28 C95.5933333,209.22 98.0333333,207 101.053333,207 C104.073333,207 106.513333,209.22 106.513333,212.28 C106.513333,215.36 104.073333,217.6 101.053333,217.6 C98.0333333,217.6 95.5933333,215.36 95.5933333,212.28 Z M97.5733333,212.28 C97.5733333,214.4 99.1533333,215.92 101.053333,215.92 C102.973333,215.92 104.533333,214.4 104.533333,212.28 C104.533333,210.18 102.973333,208.68 101.053333,208.68 C99.1533333,208.68 97.5733333,210.18 97.5733333,212.28 Z M108.69,213.72 L108.69,207.24 L110.63,207.24 L110.63,213.28 C110.63,214.68 110.91,215.8 112.53,215.8 C114.59,215.8 115.81,213.98 115.81,211.98 L115.81,207.24 L117.75,207.24 L117.75,217.36 L115.87,217.36 L115.87,216.02 C115.87,215.6 115.91,215.28 115.91,215.28 L115.87,215.28 C115.45,216.28 114.13,217.6 112.15,217.6 C109.87,217.6 108.69,216.4 108.69,213.72 Z M120.146667,212.3 C120.146667,209.08 122.046667,207 124.726667,207 C127.066667,207 127.846667,208.6 127.846667,208.6 L127.886667,208.6 C127.886667,208.6 127.846667,208.3 127.846667,207.92 L127.846667,203.24 L129.786667,203.24 L129.786667,217.36 L127.946667,217.36 L127.946667,216.4 C127.946667,216 127.966667,215.72 127.966667,215.72 L127.926667,215.72 C127.926667,215.72 127.106667,217.6 124.606667,217.6 C121.866667,217.6 120.146667,215.44 120.146667,212.3 Z M122.126667,212.3 C122.126667,214.5 123.306667,215.92 124.986667,215.92 C126.486667,215.92 127.906667,214.86 127.906667,212.28 C127.906667,210.48 126.966667,208.68 125.046667,208.68 C123.446667,208.68 122.126667,210 122.126667,212.3 Z M133.243333,217.36 L133.243333,203.24 L135.223333,203.24 L135.223333,215.64 L141.543333,215.64 L141.543333,217.36 L133.243333,217.36 Z M143.42,205.22 L143.42,203.24 L145.38,203.24 L145.38,205.22 L143.42,205.22 Z M143.44,217.36 L143.44,207.24 L145.38,207.24 L145.38,217.36 L143.44,217.36 Z M148.436667,217.36 L148.436667,207.24 L150.316667,207.24 L150.316667,208.58 C150.316667,208.98 150.276667,209.32 150.276667,209.32 L150.316667,209.32 C150.716667,208.44 151.916667,207 154.116667,207 C156.496667,207 157.596667,208.3 157.596667,210.88 L157.596667,217.36 L155.656667,217.36 L155.656667,211.32 C155.656667,209.9 155.356667,208.78 153.736667,208.78 C152.196667,208.78 150.956667,209.8 150.536667,211.26 C150.416667,211.66 150.376667,212.12 150.376667,212.62 L150.376667,217.36 L148.436667,217.36 Z M160.513333,217.36 L160.513333,203.24 L162.453333,203.24 L162.453333,210.96 L163.873333,210.96 L166.633333,207.24 L168.833333,207.24 L165.473333,211.7 L165.473333,211.74 L169.213333,217.36 L166.953333,217.36 L163.913333,212.6 L162.453333,212.6 L162.453333,217.36 L160.513333,217.36 Z" id="CloudLink" fill="#11284C"></path>
            </g>
        </g>
    </g>
</svg>