<?xml version="1.0" encoding="UTF-8"?>
<svg width="250px" height="250px" viewBox="0 0 250 250" version="1.1" xmlns="http://www.w3.org/2000/svg" xmlns:xlink="http://www.w3.org/1999/xlink">
    <!-- Generator: Sketch 48.2 (47327) - http://www.bohemiancoding.com/sketch -->
    <title>Group 7</title>
    <desc>Created with Sketch.</desc>
    <defs></defs>
    <g id="help.mitel.io-copy-5" stroke="none" stroke-width="1" fill="none" fill-rule="evenodd" transform="translate(-323.000000, -292.000000)">
        <g id="Group-7" transform="translate(323.000000, 292.000000)">
            <g id="iconOfficeLink">
                <g id="bkgrnd"></g>
                <g id="icon" transform="translate(77.000000, 78.000000)">
                    <path d="M80.556507,37.069388 L89,41 L95.0682871,29.1348411 C97.120752,25.9267044 95.3243821,21.0936291 89.6791774,14.6356153 C84.6650249,9.67763778 78.4939076,6.05739516 71.5341558,3.65779422 C64.2306049,1.21926474 56.3674153,-6.15470116e-15 47.9445871,-3.55271368e-15 C39.5217589,-9.50726196e-16 32,1.21926474 25.3793103,3.65779422 C16.7596072,6.63732052 9.18725843,11.4118996 4.37864393,17.3685463 C0.0579642021,22.051543 -1.06510339,25.9375969 1.00944116,29.026708 L8,41 L24.2758621,32.9577465 M24.2758621,42.8450704 L24.2758621,57.1267606 C24.2758621,62.6614223 27.2296917,65.5820142 33.1373509,65.8885362 C33.3682588,65.900517 33.5293717,65.9095026 33.6206897,65.915493 L33.6206897,78 L49.0689655,65.915493 L62.8965517,65.915493 C68.7816092,65.915493 71.7241379,62.6197183 71.7241379,56.028169 L71.7241379,29.7605634 C71.7241379,22.4366197 68.045977,18.7746479 60.6896552,18.7746479 L35.3103448,18.7746479 C27.954023,18.7746479 24.2758621,22.4366197 24.2758621,29.7605634 L24.2758621,32.9577465" id="Combined-Shape" stroke="#11284C" stroke-width="3" stroke-linecap="round" stroke-linejoin="round" transform="translate(47.944587, 39.000000) rotate(-360.000000) translate(-47.944587, -39.000000) "></path>
                    <path d="M38.510837,37.0347204 C36.743254,37.0347204 35.3103448,35.6302025 35.3103448,33.8976419 C35.3103448,32.1650813 36.743254,30.7605634 38.510837,30.7605634 C40.27842,30.7605634 41.7113291,32.1650813 41.7113291,33.8976419 C41.7113291,35.6302025 40.27842,37.0347204 38.510837,37.0347204 Z M48.1123134,37.0347204 C46.3447304,37.0347204 44.9118212,35.6302025 44.9118212,33.8976419 C44.9118212,32.1650813 46.3447304,30.7605634 48.1123134,30.7605634 C49.8798964,30.7605634 51.3128055,32.1650813 51.3128055,33.8976419 C51.3128055,35.6302025 49.8798964,37.0347204 48.1123134,37.0347204 Z M57.7137898,37.0347204 C55.9462068,37.0347204 54.5132977,35.6302025 54.5132977,33.8976419 C54.5132977,32.1650813 55.9462068,30.7605634 57.7137898,30.7605634 C59.4813728,30.7605634 60.914282,32.1650813 60.914282,33.8976419 C60.914282,35.6302025 59.4813728,37.0347204 57.7137898,37.0347204 Z M38.510837,46.6902889 C36.743254,46.6902889 35.3103448,45.285771 35.3103448,43.5532104 C35.3103448,41.8206497 36.743254,40.4161319 38.510837,40.4161319 C40.27842,40.4161319 41.7113291,41.8206497 41.7113291,43.5532104 C41.7113291,45.285771 40.27842,46.6902889 38.510837,46.6902889 Z M48.1123134,46.6902889 C46.3447304,46.6902889 44.9118212,45.285771 44.9118212,43.5532104 C44.9118212,41.8206497 46.3447304,40.4161319 48.1123134,40.4161319 C49.8798964,40.4161319 51.3128055,41.8206497 51.3128055,43.5532104 C51.3128055,45.285771 49.8798964,46.6902889 48.1123134,46.6902889 Z M57.7137898,46.6902889 C55.9462068,46.6902889 54.5132977,45.285771 54.5132977,43.5532104 C54.5132977,41.8206497 55.9462068,40.4161319 57.7137898,40.4161319 C59.4813728,40.4161319 60.914282,41.8206497 60.914282,43.5532104 C60.914282,45.285771 59.4813728,46.6902889 57.7137898,46.6902889 Z M38.510837,56.3458573 C36.743254,56.3458573 35.3103448,54.9413394 35.3103448,53.2087788 C35.3103448,51.4762182 36.743254,50.0717003 38.510837,50.0717003 C40.27842,50.0717003 41.7113291,51.4762182 41.7113291,53.2087788 C41.7113291,54.9413394 40.27842,56.3458573 38.510837,56.3458573 Z M48.1123134,56.3458573 C46.3447304,56.3458573 44.9118212,54.9413394 44.9118212,53.2087788 C44.9118212,51.4762182 46.3447304,50.0717003 48.1123134,50.0717003 C49.8798964,50.0717003 51.3128055,51.4762182 51.3128055,53.2087788 C51.3128055,54.9413394 49.8798964,56.3458573 48.1123134,56.3458573 Z M57.7137898,56.3458573 C55.9462068,56.3458573 54.5132977,54.9413394 54.5132977,53.2087788 C54.5132977,51.4762182 55.9462068,50.0717003 57.7137898,50.0717003 C59.4813728,50.0717003 60.914282,51.4762182 60.914282,53.2087788 C60.914282,54.9413394 59.4813728,56.3458573 57.7137898,56.3458573 Z" id="Combined-Shape" fill="#00A1E0"></path>
                    <path d="M38.510837,46.6902889 C36.743254,46.6902889 35.3103448,45.285771 35.3103448,43.5532104 C35.3103448,41.8206497 36.743254,40.4161319 38.510837,40.4161319 C40.27842,40.4161319 41.7113291,41.8206497 41.7113291,43.5532104 C41.7113291,45.285771 40.27842,46.6902889 38.510837,46.6902889 Z M48.1123134,46.6902889 C46.3447304,46.6902889 44.9118212,45.285771 44.9118212,43.5532104 C44.9118212,41.8206497 46.3447304,40.4161319 48.1123134,40.4161319 C49.8798964,40.4161319 51.3128055,41.8206497 51.3128055,43.5532104 C51.3128055,45.285771 49.8798964,46.6902889 48.1123134,46.6902889 Z M57.7137898,46.6902889 C55.9462068,46.6902889 54.5132977,45.285771 54.5132977,43.5532104 C54.5132977,41.8206497 55.9462068,40.4161319 57.7137898,40.4161319 C59.4813728,40.4161319 60.914282,41.8206497 60.914282,43.5532104 C60.914282,45.285771 59.4813728,46.6902889 57.7137898,46.6902889 Z" id="Combined-Shape" fill="#11284C"></path>
                </g>
                <path d="M78,211.2 C78,207.14 81.18,204 85.26,204 C89.34,204 92.5,207.14 92.5,211.2 C92.5,215.36 89.34,218.6 85.26,218.6 C81.18,218.6 78,215.36 78,211.2 Z M80.04,211.2 C80.04,214.38 82.38,216.78 85.26,216.78 C88.14,216.78 90.46,214.38 90.46,211.2 C90.46,208.12 88.14,205.8 85.26,205.8 C82.38,205.8 80.04,208.12 80.04,211.2 Z M102.256667,218.36 L102.256667,209.8 L97.4566667,209.8 L97.4566667,218.36 L95.5366667,218.36 L95.5366667,209.8 L94.2766667,209.8 L94.2766667,208.24 L95.5366667,208.24 L95.5366667,207.9 C95.5366667,204.56 98.0566667,204.14 99.3366667,204.14 C99.7766667,204.14 100.076667,204.2 100.076667,204.2 L100.076667,205.86 C100.076667,205.86 99.8766667,205.82 99.5766667,205.82 C98.8366667,205.82 97.4566667,206.06 97.4566667,207.94 L97.4566667,208.24 L102.256667,208.24 L102.256667,207.9 C102.256667,204.56 104.776667,204.14 106.056667,204.14 C106.496667,204.14 106.796667,204.2 106.796667,204.2 L106.796667,205.86 C106.796667,205.86 106.596667,205.82 106.296667,205.82 C105.556667,205.82 104.176667,206.06 104.176667,207.94 L104.176667,208.24 L110.376667,208.24 L110.376667,218.36 L108.436667,218.36 L108.436667,209.8 L104.176667,209.8 L104.176667,218.36 L102.256667,218.36 Z M108.416667,206.22 L108.416667,204.24 L110.376667,204.24 L110.376667,206.22 L108.416667,206.22 Z M112.713333,213.3 C112.713333,210.3 114.953333,208 118.133333,208 C120.673333,208 121.933333,209.48 121.933333,209.48 L121.013333,210.84 C121.013333,210.84 119.933333,209.68 118.213333,209.68 C116.173333,209.68 114.693333,211.2 114.693333,213.28 C114.693333,215.34 116.173333,216.92 118.273333,216.92 C120.153333,216.92 121.393333,215.56 121.393333,215.56 L122.173333,216.98 C122.173333,216.98 120.773333,218.6 118.133333,218.6 C114.953333,218.6 112.713333,216.34 112.713333,213.3 Z M123.69,213.3 C123.69,210.08 125.87,208 128.75,208 C131.61,208 133.13,210.12 133.13,212.74 C133.13,213 133.07,213.58 133.07,213.58 L125.69,213.58 C125.79,215.8 127.37,216.92 129.17,216.92 C130.91,216.92 132.17,215.74 132.17,215.74 L132.97,217.16 C132.97,217.16 131.47,218.6 129.05,218.6 C125.87,218.6 123.69,216.3 123.69,213.3 Z M125.75,212.12 L131.15,212.12 C131.09,210.38 130.01,209.54 128.71,209.54 C127.23,209.54 126.03,210.46 125.75,212.12 Z M135.906667,218.36 L135.906667,204.24 L137.886667,204.24 L137.886667,216.64 L144.206667,216.64 L144.206667,218.36 L135.906667,218.36 Z M146.083333,206.22 L146.083333,204.24 L148.043333,204.24 L148.043333,206.22 L146.083333,206.22 Z M146.103333,218.36 L146.103333,208.24 L148.043333,208.24 L148.043333,218.36 L146.103333,218.36 Z M151.1,218.36 L151.1,208.24 L152.98,208.24 L152.98,209.58 C152.98,209.98 152.94,210.32 152.94,210.32 L152.98,210.32 C153.38,209.44 154.58,208 156.78,208 C159.16,208 160.26,209.3 160.26,211.88 L160.26,218.36 L158.32,218.36 L158.32,212.32 C158.32,210.9 158.02,209.78 156.4,209.78 C154.86,209.78 153.62,210.8 153.2,212.26 C153.08,212.66 153.04,213.12 153.04,213.62 L153.04,218.36 L151.1,218.36 Z M163.176667,218.36 L163.176667,204.24 L165.116667,204.24 L165.116667,211.96 L166.536667,211.96 L169.296667,208.24 L171.496667,208.24 L168.136667,212.7 L168.136667,212.74 L171.876667,218.36 L169.616667,218.36 L166.576667,213.6 L165.116667,213.6 L165.116667,218.36 L163.176667,218.36 Z" id="OfficeLink" fill="#11284C"></path>
            </g>
            <g id="Group-8-Copy" stroke="#E7EAEF">
                <rect id="Rectangle-14-Copy" x="0.5" y="0.5" width="249" height="249"></rect>
            </g>
        </g>
    </g>
</svg>